<?xml version="1.0" ?><svg width="64px" height="64px" viewBox="0 0 64 64" data-name="Layer 1" id="Layer_1" xmlns="http://www.w3.org/2000/svg"><path d="M32,50.05A17.85,17.85,0,1,1,49.85,32.2,17.87,17.87,0,0,1,32,50.05Zm0-31.7A13.85,13.85,0,1,0,45.85,32.2,13.86,13.86,0,0,0,32,18.35Z"/><path d="M20.19,53.53a2,2,0,0,1-1-.3,2,2,0,0,1-.67-2.75L22,44.68a2,2,0,1,1,3.41,2.09l-3.55,5.8A2,2,0,0,1,20.19,53.53Z"/><path d="M11.13,25.37a1.9,1.9,0,0,1-.77-.16,2,2,0,0,1-1.07-2.62A24.86,24.86,0,0,1,19.87,10.73a2,2,0,1,1,2,3.49A20.73,20.73,0,0,0,13,24.15,2,2,0,0,1,11.13,25.37Z"/><path d="M43.81,53.53a2,2,0,0,1-1.71-1l-3.54-5.8A2,2,0,0,1,42,44.68l3.55,5.8a2,2,0,0,1-.67,2.75A2,2,0,0,1,43.81,53.53Z"/><path d="M52.87,25.37A2,2,0,0,1,51,24.15a20.73,20.73,0,0,0-8.86-9.93,2,2,0,0,1,2-3.49A24.86,24.86,0,0,1,54.71,22.59a2,2,0,0,1-1.07,2.62A1.93,1.93,0,0,1,52.87,25.37Z"/><path d="M32,34.2a2,2,0,0,1-2-2V25.92a2,2,0,0,1,4,0V32.2A2,2,0,0,1,32,34.2Z"/><path d="M38.28,34.2H32a2,2,0,0,1,0-4h6.28a2,2,0,0,1,0,4Z"/></svg>